<?xml version="1.0" encoding="utf-8"?>
<!-- Generator: Adobe Illustrator 21.0.2, SVG Export Plug-In . SVG Version: 6.00 Build 0)  -->
<svg version="1.1" id="Layer_1" xmlns="http://www.w3.org/2000/svg" xmlns:xlink="http://www.w3.org/1999/xlink" x="0px" y="0px"
	fill="#1E40AF"
	 viewBox="0 0 512 512" style="enable-background:new 0 0 512 512;" xml:space="preserve">
<g>
	<path class="st0" d="M256,6.9C118.4,6.9,6.9,118.4,6.9,256S118.4,505.1,256,505.1S505.1,393.6,505.1,256S393.6,6.9,256,6.9z
		 M170.1,211.3h-30.2l-12.2,88.5c-1.5,10.5-2.2,17.2-2.2,20.4c-0.1,7.8,3.5,11.8,10.6,11.8c9.9,0,18.1-2.8,24.8-8.3l3.7,11.7
		c-9.2,10.5-21.9,17.8-38.1,22c-6.3,1.7-12.4,2.5-18.2,2.5c-5.8,0-10.4-0.4-13.8-1.2s-6.4-2.3-9-4.3c-5.9-4.6-8.8-11.5-8.8-20.7
		c0-2.5,0.4-7.2,1.2-13.9l14.6-108.4H75.1l3.5-16l17.9-6.9c7.5-6.5,15.4-19.5,23.6-39h27.7l-4.8,38.2h30.5L170.1,211.3z
		 M417.4,357.3c-5.1,1.9-10.9,2.8-17.5,2.8c-6.6,0-11.8-0.8-15.7-2.3c-3.9-1.6-6.9-3.6-8.9-6c-3.3-3.8-5-9.4-5-16.7
		c0-4,0.5-9,1.6-15.1l7.5-40.9c2.8-16.5,4.2-27.6,4.2-33.3c0-5.7,0-9.7-0.1-12.1c-0.1-2.4-0.3-4.9-0.8-7.5c-0.5-2.6-1.2-4.7-2.2-6.3
		c-1.7-2.8-4.2-4.2-7.6-4.2c-3.4,0-6.7,0.7-9.7,2.2s-6.2,3.5-9.3,6.2c-6.2,5.4-11.7,12.7-16.6,22c-0.6,11.8-1.8,24.2-3.5,37.1
		l-8.6,74H276l10-77.9c1.9-14.8,2.8-25.3,2.8-31.3s0-10.5-0.1-13.4c-0.1-2.9-0.4-5.8-1-8.6c-0.6-2.8-1.4-5-2.5-6.5
		c-1.8-2.4-4.5-3.7-8.3-3.7s-7.2,0.9-10.3,2.6c-3.1,1.7-6.2,4-9.3,7c-6.3,6.3-11.9,14-16.7,23.1l-14.9,108.7h-47.3L197.8,216
		l-15.8-8.8l2.5-13l54.5-7.6l7.8,3.5l-2.3,31.1c10.1-16.3,22.4-27,37.1-31.9c5.1-1.8,10.4-2.6,16-2.6c23.7,0,37,12.1,39.8,36.2
		c13.5-24.1,32.9-36.2,58.2-36.2c25.9,0,38.8,14.7,38.8,44.2c0,5.4-1,14.4-3.1,27l-4.1,25.2c-0.6,3.7-1.2,7.6-2,11.6
		c-0.7,4-1.4,8-2.1,11.9c-1.4,8.7-2.1,15.6-2.1,20.7c0,5.1,1.8,7.5,5.6,7.5c2.8,0,7.2-2.2,13.2-6.7l4.1,10.7
		C437.8,347.1,429,353.3,417.4,357.3z"/>
</g>
</svg>
