<?xml version="1.0" standalone="no"?>
<!DOCTYPE svg PUBLIC "-//W3C//DTD SVG 20010904//EN"
 "http://www.w3.org/TR/2001/REC-SVG-20010904/DTD/svg10.dtd">
<svg version="1.0" xmlns="http://www.w3.org/2000/svg"
 width="700.000000pt" height="700.000000pt" viewBox="0 0 700.000000 700.000000"
 preserveAspectRatio="xMidYMid meet">
<metadata>
Created by potrace 1.14, written by Peter Selinger 2001-2017
</metadata>
<g transform="translate(0.000000,700.000000) scale(0.100000,-0.100000)"
fill="#000000" stroke="none">
<path d="M3387 6904 c-1 -1 -54 -5 -117 -8 -189 -11 -262 -21 -465 -62 -180
-36 -467 -124 -600 -184 -22 -9 -65 -28 -95 -41 -254 -106 -604 -329 -845
-539 -97 -84 -338 -334 -418 -435 -393 -492 -653 -1099 -723 -1690 -3 -22 -7
-50 -9 -62 -22 -133 -23 -644 0 -761 2 -10 6 -43 10 -73 5 -47 16 -111 32
-199 68 -374 227 -781 440 -1130 66 -107 201 -300 251 -357 15 -17 43 -51 62
-74 47 -59 301 -314 370 -372 114 -96 199 -160 328 -247 72 -50 134 -90 137
-90 2 0 27 -14 55 -30 262 -155 592 -287 880 -354 63 -15 131 -31 150 -36 19
-5 87 -16 150 -25 63 -9 126 -18 140 -21 138 -22 623 -22 761 1 13 2 60 9 104
15 272 38 523 105 777 207 721 287 1335 827 1715 1508 47 84 127 244 128 255
1 3 8 21 17 40 110 232 218 623 254 915 3 22 7 54 9 70 24 176 24 604 0 760
-3 17 -11 75 -20 130 -8 55 -17 111 -20 125 -2 14 -7 39 -11 55 -14 73 -46
202 -55 225 -5 14 -11 34 -13 45 -2 11 -19 63 -36 115 -110 324 -253 605 -453
890 -44 63 -83 117 -87 120 -3 3 -16 18 -28 34 -107 140 -371 404 -525 528
-90 71 -279 205 -362 255 -149 90 -291 163 -443 228 -73 31 -139 58 -145 59
-7 2 -19 6 -27 9 -45 19 -248 81 -335 102 -174 41 -253 55 -447 80 -102 13
-480 28 -491 19z m-1373 -1979 c0 -16 -4 -52 -7 -80 -8 -61 -14 -107 -27 -210
-20 -164 -22 -180 -27 -187 -6 -11 -12 -10 209 -12 109 -1 200 -5 204 -8 3 -4
-2 -55 -11 -115 -9 -59 -19 -124 -21 -143 -3 -19 -7 -41 -9 -47 -3 -10 -54
-13 -209 -13 l-204 0 -7 -57 c-4 -32 -8 -64 -10 -73 -1 -8 -6 -37 -9 -65 -4
-27 -9 -61 -11 -75 -3 -24 -21 -151 -30 -215 -2 -16 -7 -52 -10 -80 -3 -27 -8
-61 -10 -75 -2 -14 -7 -45 -10 -70 -3 -25 -8 -56 -10 -70 -2 -14 -7 -44 -10
-67 -9 -77 -16 -128 -20 -154 -3 -14 -7 -41 -9 -60 -2 -19 -14 -106 -26 -194
-37 -267 -29 -331 43 -375 65 -40 267 -7 367 60 53 35 60 36 60 12 0 -11 9
-45 20 -77 l20 -57 -23 -27 c-59 -72 -211 -173 -332 -222 -150 -60 -249 -81
-395 -84 -74 -2 -157 1 -184 6 -105 20 -191 85 -235 179 -23 49 -26 67 -26
170 0 63 3 140 8 170 4 30 14 107 22 170 8 63 17 126 20 140 2 14 7 45 9 70 3
25 12 95 20 155 14 101 39 284 51 380 5 40 13 98 20 145 7 46 15 105 20 144 4
38 13 97 20 146 2 14 7 50 10 80 4 30 9 58 12 63 2 4 -50 7 -116 7 -90 0 -121
3 -121 13 0 6 9 48 20 92 11 44 20 87 20 96 0 11 37 30 125 64 127 48 148 63
226 162 40 50 199 346 199 371 0 4 6 17 14 28 13 19 25 20 198 19 l183 0 -1
-30z m1311 -501 c30 -14 53 -29 51 -32 -2 -4 -7 -47 -10 -97 -13 -184 -18
-251 -21 -277 -1 -16 0 -28 4 -28 3 1 24 28 46 62 77 118 226 253 351 316 53
27 148 60 199 69 48 8 197 9 245 1 217 -35 346 -159 404 -387 l22 -89 54 81
c60 90 170 207 243 256 131 89 291 140 457 145 321 11 495 -120 555 -419 21
-104 8 -349 -30 -555 -2 -14 -7 -43 -10 -65 -3 -22 -8 -51 -10 -65 -19 -112
-66 -391 -70 -415 -3 -16 -8 -46 -11 -65 -3 -19 -8 -45 -10 -57 -2 -13 -6 -35
-9 -50 -4 -26 -13 -115 -19 -203 -4 -52 12 -98 40 -116 21 -15 31 -15 67 -4
23 6 66 28 95 47 29 19 55 33 58 31 2 -3 15 -36 28 -75 l24 -70 -42 -45 c-103
-113 -288 -211 -446 -234 -76 -11 -222 -5 -280 12 -114 33 -167 75 -208 164
-22 48 -25 68 -25 165 0 71 8 153 23 230 12 66 24 131 26 145 4 21 38 199 50
265 7 34 23 128 28 165 3 19 8 44 10 56 2 12 7 45 11 75 25 190 31 260 29 358
-3 193 -16 252 -68 303 -25 25 -33 27 -94 24 -126 -5 -227 -74 -373 -253 -9
-11 -35 -51 -57 -89 -38 -64 -41 -76 -47 -164 -3 -52 -8 -108 -9 -125 -8 -82
-20 -191 -21 -195 -1 -3 -5 -39 -9 -80 -5 -41 -10 -82 -11 -90 -3 -18 -14
-108 -20 -175 -3 -27 -8 -68 -11 -90 -4 -22 -7 -51 -9 -65 -6 -64 -17 -166
-20 -180 -1 -8 -6 -46 -9 -85 -4 -38 -9 -81 -11 -95 -4 -30 -12 -93 -21 -175
-3 -33 -8 -62 -9 -65 -2 -4 -643 -5 -666 -1 -3 1 -2 27 2 59 4 31 10 82 14
112 3 30 8 62 10 70 3 13 9 59 20 160 1 14 5 43 8 65 3 22 9 63 12 90 3 28 8
66 11 85 2 19 7 51 9 70 3 19 7 55 11 80 3 25 8 59 10 75 6 54 16 129 20 160
8 56 14 110 20 165 3 30 7 71 10 90 10 69 13 416 4 470 -23 139 -58 175 -165
174 -59 0 -79 -5 -132 -33 -102 -54 -243 -209 -321 -351 -30 -55 -37 -77 -47
-160 -5 -42 -12 -91 -20 -150 -2 -14 -7 -45 -10 -70 -3 -25 -8 -56 -10 -70 -2
-14 -7 -50 -10 -80 -4 -30 -9 -62 -10 -70 -2 -8 -6 -37 -9 -65 -9 -70 -17
-126 -21 -155 -10 -68 -25 -180 -30 -220 -3 -25 -12 -90 -20 -145 -8 -55 -17
-122 -21 -150 -3 -27 -7 -57 -9 -65 -1 -8 -6 -43 -10 -77 -4 -34 -12 -63 -18
-65 -7 -2 -151 -3 -322 -3 l-310 1 0 24 c-1 14 2 43 6 65 6 35 12 76 25 180 2
17 6 48 9 70 4 22 8 51 10 65 2 14 7 50 10 80 3 30 8 62 10 70 2 8 7 40 10 70
6 56 8 70 20 150 12 83 14 95 26 180 6 47 13 96 14 110 7 54 16 126 20 150 2
14 6 43 9 65 3 22 17 123 31 225 15 102 28 201 31 220 2 19 7 50 10 67 2 18 7
53 10 79 2 26 7 50 9 54 3 4 -12 16 -33 26 -21 11 -70 37 -110 59 -72 39 -73
41 -68 75 8 60 27 140 34 144 4 2 32 7 63 10 31 4 66 8 76 10 11 3 44 7 74 11
30 3 61 8 69 10 8 2 38 6 65 10 28 3 77 10 110 15 62 9 103 15 190 26 28 3 51
7 52 8 10 9 53 0 98 -20z"/>
</g>
</svg>
